<svg width="480" height="480" xmlns="http://www.w3.org/2000/svg">

 <g>
  <title>background</title>
  <rect fill="none" id="canvas_background" height="602" width="802" y="-1" x="-1"/>
 </g>
 <g>
  <title>Layer 1</title>
  <g id="svg_1">
   <g id="svg_2">
    <rect id="svg_3" height="16" width="16" y="264" x="144"/>
   </g>
  </g>
  <g id="svg_4">
   <g id="svg_5">
    <rect id="svg_6" height="16" width="16" y="296" x="144"/>
   </g>
  </g>
  <g id="svg_7">
   <g id="svg_8">
    <rect id="svg_9" height="16" width="16" y="328" x="144"/>
   </g>
  </g>
  <g id="svg_10">
   <g id="svg_11">
    <rect id="svg_12" height="16" width="16" y="232" x="144"/>
   </g>
  </g>
  <g id="svg_13">
   <g id="svg_14">
    <rect id="svg_15" height="16" width="16" y="200" x="144"/>
   </g>
  </g>
  <g id="svg_16">
   <g id="svg_17">
    <rect id="svg_18" height="16" width="16" y="168" x="144"/>
   </g>
  </g>
  <g id="svg_19">
   <g id="svg_20">
    <rect id="svg_21" height="16" width="16" y="136" x="144"/>
   </g>
  </g>
  <g id="svg_22">
   <g id="svg_23">
    <rect id="svg_24" height="16" width="16" y="136" x="32"/>
   </g>
  </g>
  <g id="svg_25">
   <g id="svg_26">
    <rect id="svg_27" height="16" width="16" y="136" x="432"/>
   </g>
  </g>
  <g id="svg_28">
   <g id="svg_29">
    <rect id="svg_30" height="16" width="16" y="328" x="432"/>
   </g>
  </g>
  <g id="svg_31">
   <g id="svg_32">
    <rect id="svg_33" height="16" width="16" y="328" x="32"/>
   </g>
  </g>
  <g id="svg_34">
   <g id="svg_35">
    <path id="svg_36" d="m472,200c4.418,0 8,-3.582 8,-8l0,-80c0,-4.418 -3.582,-8 -8,-8l-464,0c-4.418,0 -8,3.582 -8,8l0,80c0,4.418 3.582,8 8,8c22.091,0 40,17.909 40,40s-17.909,40 -40,40c-4.418,0 -8,3.582 -8,8l0,80c0,4.418 3.582,8 8,8l464,0c4.418,0 8,-3.582 8,-8l0,-80c0,-4.418 -3.582,-8 -8,-8c-22.091,0 -40,-17.909 -40,-40s17.909,-40 40,-40zm-55.476,47.956c3.532,24.61 22.867,43.944 47.476,47.476l0,64.568l-448,0l0,-64.568c30.614,-4.394 51.87,-32.773 47.476,-63.388c-3.532,-24.609 -22.866,-43.944 -47.476,-47.476l0,-64.568l448,0l0,64.568c-30.614,4.394 -51.87,32.773 -47.476,63.388z"/>
   </g>
  </g>
  <g stroke="null" id="svg_37">
   <g stroke="null" id="svg_38">
    <path stroke="null" id="svg_39" d="m260,123c-16.56844,0 -30,13.43156 -30,30s13.43156,30 30,30c16.56844,0 30,-13.43156 30,-30s-13.43156,-30 -30,-30zm0,45c-8.28469,0 -15,-6.71531 -15,-15s6.71531,-15 15,-15s15,6.71531 15,15s-6.71531,15 -15,15z"/>
   </g>
  </g>
  <g stroke="null" id="svg_43">
   <g stroke="null" id="svg_44">
    <rect stroke="null" id="svg_45" height="16" width="181.017" transform="matrix(0.4279362758378154,-0.4989961169355095,0.4279362758378154,0.4989961169355095,48.83891662901209,269.0658358765994) " y="192.43798" x="285.44875"/>
   </g>
  </g>
  <g id="svg_46"/>
  <g id="svg_47"/>
  <g id="svg_48"/>
  <g id="svg_49"/>
  <g id="svg_50"/>
  <g id="svg_51"/>
  <g id="svg_52"/>
  <g id="svg_53"/>
  <g id="svg_54"/>
  <g id="svg_55"/>
  <g id="svg_56"/>
  <g id="svg_57"/>
  <g id="svg_58"/>
  <g id="svg_59"/>
  <g id="svg_60"/>
  <g stroke="null" id="svg_72">
   <g stroke="null" id="svg_71">
    <path stroke="null" id="svg_70" d="m334,182c-16.56844,0 -30,13.43156 -30,30s13.43156,30 30,30c16.56844,0 30,-13.43156 30,-30s-13.43156,-30 -30,-30zm0,45c-8.28469,0 -15,-6.71531 -15,-15s6.71531,-15 15,-15s15,6.71531 15,15s-6.71531,15 -15,15z"/>
   </g>
  </g>
  <g stroke="null" id="svg_75"/>
  <ellipse stroke="#000000" ry="23.24324" rx="23.51351" id="svg_87" cy="438.91892" cx="101.35135" fill-opacity="null" stroke-width="11" fill="none"/>
  <ellipse stroke="#000000" ry="23.24324" rx="23.51351" id="svg_88" cy="441.08108" cx="191.08108" fill-opacity="null" stroke-width="11" fill="none"/>
  <path stroke="#000000" transform="rotate(126.10446166992188 161.8280334472656,387.2523498535157) " id="svg_106" d="m124.03624,386.98206l75.58357,0l0,0c9.90166,0 17.92853,0.121 17.92853,0.27026c0,0.14926 -8.02687,0.27026 -17.92853,0.27026l-75.58357,0l0,0c-9.90165,0 -17.92853,-0.121 -17.92853,-0.27026c0,-0.14926 8.02688,-0.27026 17.92853,-0.27026z" fill-opacity="null" stroke-opacity="null" stroke-width="13" fill="none"/>
  <path stroke="#000000" transform="rotate(57.96944046020508 146.6001129150391,400.98590087890625) " id="svg_107" d="m123.67842,400.71564l45.84337,0l0,0c6.00561,0 10.87411,0.121 10.87411,0.27026c0,0.14926 -4.8685,0.27026 -10.87411,0.27026l-45.84337,0l0,0c-6.0056,0 -10.87411,-0.121 -10.87411,-0.27026c0,-0.14926 4.86851,-0.27026 10.87411,-0.27026z" fill-opacity="null" stroke-opacity="null" stroke-width="13" fill="none"/>
 </g>
</svg>