<svg id="_x31_" height="512" viewBox="0 0 24 24" width="512" xmlns="http://www.w3.org/2000/svg"><path d="m12 23c-1.103 0-2-.897-2-2s.897-2 2-2 2 .897 2 2-.897 2-2 2zm0-3c-.552 0-1 .449-1 1s.448 1 1 1 1-.449 1-1-.448-1-1-1z"/><path d="m19 23c-1.103 0-2-.897-2-2s.897-2 2-2 2 .897 2 2-.897 2-2 2zm0-3c-.552 0-1 .449-1 1s.448 1 1 1 1-.449 1-1-.448-1-1-1z"/><path d="m17.5 21.5c-.156 0-.312-.074-.408-.212l-3.88-5.5c-.159-.226-.105-.538.12-.697.227-.159.538-.106.696.121l3.88 5.5c.159.226.105.538-.12.697-.088.061-.188.091-.288.091z"/><path d="m13.5 21.5c-.1 0-.201-.03-.288-.091-.226-.16-.279-.471-.12-.697l6-8.5c.158-.226.473-.279.696-.12.226.16.279.471.12.697l-6 8.5c-.096.137-.252.211-.408.211z"/><path d="m21.5 16h-19c-1.379 0-2.5-1.122-2.5-2.5v-10c0-1.378 1.121-2.5 2.5-2.5h19c1.379 0 2.5 1.122 2.5 2.5v10c0 1.378-1.121 2.5-2.5 2.5zm-19-14c-.827 0-1.5.673-1.5 1.5v10c0 .827.673 1.5 1.5 1.5h19c.827 0 1.5-.673 1.5-1.5v-10c0-.827-.673-1.5-1.5-1.5z"/><path d="m15.5 16c-.276 0-.5-.224-.5-.5v-1c0-.276.224-.5.5-.5s.5.224.5.5v1c0 .276-.224.5-.5.5z"/><path d="m15.5 12.231c-.276 0-.5-.224-.5-.5v-1.846c0-.276.224-.5.5-.5s.5.224.5.5v1.846c0 .276-.224.5-.5.5zm0-4.615c-.276 0-.5-.224-.5-.5v-1.846c0-.276.224-.5.5-.5s.5.223.5.5v1.846c0 .276-.224.5-.5.5z"/><path d="m15.5 3c-.276 0-.5-.224-.5-.5v-1c0-.276.224-.5.5-.5s.5.224.5.5v1c0 .276-.224.5-.5.5z"/></svg>