<svg width="480" height="370" xmlns="http://www.w3.org/2000/svg"> <g>  <title>background</title>  <rect x="-1" y="-1" width="482" height="372" id="canvas_background" fill="none"/> </g> <g>  <title>Layer 1</title>  <g id="svg_1">   <g id="svg_2">    <rect fill="#000000" x="143.42857" y="161.1424" width="16" height="16" id="svg_3"/>   </g>  </g>  <g id="svg_4">   <g id="svg_5">    <rect fill="#000000" x="143.42857" y="193.1424" width="16" height="16" id="svg_6"/>   </g>  </g>  <g id="svg_7">   <g id="svg_8">    <rect fill="#000000" x="143.84524" y="225.1424" width="16" height="16" id="svg_9"/>   </g>  </g>  <g id="svg_10">   <g id="svg_11">    <rect fill="#000000" x="143.42857" y="129.1424" width="16" height="16" id="svg_12"/>   </g>  </g>  <g id="svg_13">   <g id="svg_14">    <rect fill="#000000" x="143.42857" y="97.1424" width="16" height="16" id="svg_15"/>   </g>  </g>  <g id="svg_16">   <g id="svg_17">    <rect fill="#000000" x="143.42857" y="65.1424" width="16" height="16" id="svg_18"/>   </g>  </g>  <g id="svg_19">   <g id="svg_20">    <rect fill="#000000" x="143.42857" y="33.1424" width="16" height="16" id="svg_21"/>   </g>  </g>  <g id="svg_22">   <g id="svg_23">    <rect fill="#000000" x="31.42857" y="33.1424" width="16" height="16" id="svg_24"/>   </g>  </g>  <g id="svg_25">   <g id="svg_26">    <rect fill="#000000" x="431.42857" y="33.1424" width="16" height="16" id="svg_27"/>   </g>  </g>  <g id="svg_28">   <g id="svg_29">    <rect fill="#000000" x="431.42857" y="225.1424" width="16" height="16" id="svg_30"/>   </g>  </g>  <g id="svg_31">   <g id="svg_32">    <rect fill="#000000" x="31.42857" y="225.1424" width="16" height="16" id="svg_33"/>   </g>  </g>  <g id="svg_34">   <g id="svg_35">    <path fill="#000000" stroke="#000000" d="m472,97.1424c4.418,0 8,-3.582 8,-8l0,-80c0,-4.418 -3.582,-8 -8,-8l-464,0c-4.418,0 -8,3.582 -8,8l0,80c0,4.418 3.582,8 8,8c22.091,0 40,17.909 40,40s-17.909,40 -40,40c-4.418,0 -8,3.582 -8,8l0,80c0,4.418 3.582,8 8,8l464,0c4.418,0 8,-3.582 8,-8l0,-80c0,-4.418 -3.582,-8 -8,-8c-22.091,0 -40,-17.909 -40,-40s17.909,-40 40,-40zm-55.476,47.956c3.532,24.61 22.867,43.944 47.476,47.476l0,64.568l-448,0l0,-64.568c30.614,-4.394 51.87,-32.773 47.476,-63.388c-3.532,-24.609 -22.866,-43.944 -47.476,-47.476l0,-64.568l448,0l0,64.568c-30.614,4.394 -51.87,32.773 -47.476,63.388z" id="svg_36"/>   </g>  </g>  <g id="svg_37" stroke="null">   <g id="svg_38" stroke="null">    <path fill="#000000" d="m259.42857,20.1424c-16.56844,0 -30,13.43156 -30,30s13.43156,30 30,30c16.56844,0 30,-13.43156 30,-30s-13.43156,-30 -30,-30zm0,45c-8.28469,0 -15,-6.71531 -15,-15s6.71531,-15 15,-15s15,6.71531 15,15s-6.71531,15 -15,15z" id="svg_39" stroke="null"/>   </g>  </g>  <g id="svg_43" stroke="null">   <g id="svg_44" stroke="null">    <rect fill="#000000" x="387.84562" y="88.70579" transform="matrix(0.4279362758378154,-0.4989961169355095,0.4279362758378154,0.4989961169355095,48.83891662901209,269.0658358765994) " width="181.017" height="16" id="svg_45" stroke="null"/>   </g>  </g>  <g id="svg_46"/>  <g id="svg_47"/>  <g id="svg_48"/>  <g id="svg_49"/>  <g id="svg_50"/>  <g id="svg_51"/>  <g id="svg_52"/>  <g id="svg_53"/>  <g id="svg_54"/>  <g id="svg_55"/>  <g id="svg_56"/>  <g id="svg_57"/>  <g id="svg_58"/>  <g id="svg_59"/>  <g id="svg_60"/>  <g id="svg_72" stroke="null">   <g id="svg_71" stroke="null">    <path fill="#000000" d="m333.42857,79.1424c-16.56844,0 -30,13.43156 -30,30s13.43156,30 30,30c16.56844,0 30,-13.43156 30,-30s-13.43156,-30 -30,-30zm0,45c-8.28469,0 -15,-6.71531 -15,-15s6.71531,-15 15,-15s15,6.71531 15,15s-6.71531,15 -15,15z" id="svg_70" stroke="null"/>   </g>  </g>  <g id="svg_75" stroke="null"/>  <ellipse fill="none" stroke-width="11" cx="100.77992" cy="336.06132" id="svg_87" rx="23.51351" ry="23.24324" stroke="#000000"/>  <ellipse fill="none" stroke-width="11" cx="190.50965" cy="338.22348" id="svg_88" rx="23.51351" ry="23.24324" stroke="#000000"/>  <path fill="#000000" stroke-width="13" stroke-opacity="null" d="m123.46481,284.12446l75.58357,0l0,0c9.90166,0 17.92853,0.121 17.92853,0.27026c0,0.14926 -8.02687,0.27026 -17.92853,0.27026l-75.58357,0l0,0c-9.90165,0 -17.92853,-0.121 -17.92853,-0.27026c0,-0.14926 8.02688,-0.27026 17.92853,-0.27026z" id="svg_106" transform="rotate(126.10446166992188 161.2566070556641,284.39471435546875) " stroke="#000000"/>  <path stroke="#000000" fill="#000000" stroke-width="13" stroke-opacity="null" d="m123.10699,297.85804l45.84337,0l0,0c6.00561,0 10.87411,0.121 10.87411,0.27026c0,0.14926 -4.8685,0.27026 -10.87411,0.27026l-45.84337,0l0,0c-6.0056,0 -10.87411,-0.121 -10.87411,-0.27026c0,-0.14926 4.86851,-0.27026 10.87411,-0.27026z" id="svg_107" transform="rotate(57.96944046020508 146.02868652343744,298.1282958984375) "/>  <path stroke="#000000" transform="rotate(57.18930435180664 164.3681640625,327.57269287109375) " d="m164.72621,327.55337c0,0 -0.2387,0 -0.2387,0.01932l-0.2387,0l0,0.01932l-0.2387,0" id="svg_40" stroke-opacity="null" stroke-width="13" fill="#000000"/>  <line stroke="#000000" transform="rotate(30.670286178588867 127.90442657470696,330.55938720703125) " stroke-linecap="null" stroke-linejoin="null" id="svg_42" y2="337.58487" x2="127.69611" y1="323.53388" x1="128.11277" stroke-opacity="null" stroke-width="13" fill="none"/>  <text stroke="#000000" xml:space="preserve" text-anchor="start" font-family="Helvetica, Arial, sans-serif" font-size="24" id="svg_61" y="179.14259" x="302.00027" stroke-width="0" fill="#000000"/>  <text font-style="italic" font-weight="bold" stroke="#000000" transform="matrix(2.4862826850884927,0,0,2.933789894419697,-509.6266530546728,-502.56258997667635) " xml:space="preserve" text-anchor="start" font-family="'Courier New', Courier, monospace" font-size="24" id="svg_63" y="242.07944" x="270.79852" fill-opacity="null" stroke-opacity="null" stroke-width="0" fill="#000000">100/100</text> </g></svg>